# xmcd
#
# Track frame offsets:
#	150
#	15106
#	25800
#	37427
#	50808
#	65329
#	78567
#	93042
#	108240
#	123563
#	139809
#	151908
#
# Disc length: 2191 seconds
#
# Revision: 1
# Processed by: cddbd v1.5.2PL0 Copyright (c) Steve Scherf et al.
# Submitted via: EZCDAudioConverter 6.0.5.1
#
DISCID=97088d0c
DTITLE=Marty Haggard - Borders and Boundaries
DYEAR=1996
DGENRE=Country
TTITLE0=Lovin' Time
TTITLE1=Borders And Boundaries
TTITLE2=In The Afterlife
TTITLE3=Isn't She Beautiful
TTITLE4=If There's Life After Death
TTITLE5=Rollin' River
TTITLE6=I Do
TTITLE7=You're My Reason Why
TTITLE8=Hello God
TTITLE9=I'm Still Holding On
TTITLE10=Second Opinion
TTITLE11=Amnesia
EXTD=
EXTT0=
EXTT1=
EXTT2=
EXTT3=
EXTT4=
EXTT5=
EXTT6=
EXTT7=
EXTT8=
EXTT9=
EXTT10=
EXTT11=
PLAYORDER=
